#!OML:ASF E:\Style4\Style4.ASF
:FULLY-SPECIFIED
:DEGREES
1976
root -0.475057 17.6693 -2.93003 -0.0369966 -0.396535 2.7431
lowerback 9.86254 2.03733 0.0386826
upperback 5.67197 2.69826 -0.459774
thorax 0.388252 1.35863 -0.746146
lowerneck -0.28145 -4.66773 -6.60865
upperneck 7.11825 -6.28761 3.56406
head 2.69511 -3.20393 2.14245
rclavicle -6.06293e-015 -1.11319e-014
rhumerus 13.9955 16.022 -63.7094
rradius 86.7877
rwrist 3.16235
rhand -31.5542 22.4243
rfingers 7.12502
rthumb -4.81824 -7.50089
lclavicle -6.06293e-015 -1.11319e-014
lhumerus 6.65974 -23.0634 62.8441
lradius 92.7976
lwrist 1.78999
lhand -22.2559 27.9183
lfingers 7.12502
lthumb 4.16163 57.8574
rfemur -19.1922 0.072827 16.5779
rtibia 36.5113
rfoot -16.5434 -11.7532
rtoes -9.68654
lfemur -15.1962 1.00456 -21.1267
ltibia 33.0097
lfoot -17.8205 9.38929
ltoes -14.1431
1977
root -0.469914 17.6713 -2.93046 -0.0033608 -0.535341 2.90453
lowerback 9.80572 2.06236 0.0139266
upperback 5.67963 2.72879 -0.578702
thorax 0.432454 1.37526 -0.85516
lowerneck -0.251048 -4.62622 -6.54275
upperneck 6.9951 -6.22071 3.36421
head 2.63219 -3.17317 2.06734
rclavicle 1.76918e-014 5.1684e-015
rhumerus 14.5531 15.8938 -63.6262
rradius 86.5834
rwrist 2.44834
rhand -31.2206 22.4536
rfingers 7.12502
rthumb -4.49613 -7.47868
lclavicle 1.76918e-014 5.1684e-015
lhumerus 6.60518 -23.6693 62.1858
lradius 93.12
lwrist 2.62
lhand -22.182 28.0309
lfingers 7.12502
lthumb 4.23306 57.9686
rfemur -19.3146 0.114589 16.3796
rtibia 36.5669
rfoot -16.5147 -11.793
rtoes -10.4642
lfemur -15.1304 1.09631 -21.3257
ltibia 32.853
lfoot -17.76 9.42249
ltoes -14.2406
1978
root -0.465121 17.6744 -2.92816 7.86854e-005 -0.688926 3.03379
lowerback 9.76245 2.10084 0.00244087
upperback 5.68666 2.77842 -0.661871
thorax 0.467871 1.40119 -0.936982
lowerneck -0.166226 -4.57958 -6.51503
upperneck 6.87223 -6.15062 3.17715
head 2.56191 -3.14175 2.00478
rclavicle -2.0773e-014 1.11319e-014
rhumerus 15.0903 15.7615 -63.4859
rradius 86.3493
rwrist 1.56419
rhand -31.2152 22.5667
rfingers 7.12502
rthumb -4.49099 -7.36565
lclavicle -2.0773e-014 1.11319e-014
lhumerus 6.36723 -24.1887 61.767
lradius 93.5719
lwrist 3.47292
lhand -21.8997 28.1205
lfingers 7.12502
lthumb 4.50562 58.0526
rfemur -19.3414 0.180676 16.2231
rtibia 36.6111
rfoot -16.6055 -11.6457
rtoes -9.81522
lfemur -15.0275 1.19288 -21.4826
ltibia 32.7064
lfoot -17.7873 9.45164
ltoes -14.1539
1979
root -0.460178 17.6764 -2.92816 0.018886 -0.883054 3.06644
lowerback 9.73453 2.16171 0.119087
upperback 5.68917 2.86798 -0.716951
thorax 0.495941 1.44962 -1.0657
lowerneck -0.145499 -4.53446 -6.59015
upperneck 6.78933 -6.08009 3.04043
head 2.52373 -3.11121 1.97591
rclavicle -2.78299e-014 7.15625e-015
rhumerus 15.6054 15.5311 -63.3898
rradius 86.059
rwrist 0.538759
rhand -31.7828 22.9277
rfingers 7.12502
rthumb -5.03896 -6.99238
lclavicle -2.78299e-014 7.15625e-015
lhumerus 6.07946 -24.581 61.6188
lradius 93.9745
lwrist 4.47592
lhand -21.7854 28.2752
lfingers 7.12502
lthumb 4.61604 58.2049
rfemur -19.3888 0.288478 16.1746
rtibia 36.6331
rfoot -16.6962 -11.4362
rtoes -8.89115
lfemur -14.9547 1.32122 -21.533
ltibia 32.5652
lfoot -17.7061 9.57451
ltoes -14.5145
1980
root -0.453807 17.6779 -2.9292 0.0452694 -1.11635 3.09943
lowerback 9.75892 2.21973 0.248041
upperback 5.65133 2.95415 -0.763517
thorax 0.454205 1.49606 -1.19545
lowerneck -0.141562 -4.42798 -6.63577
upperneck 6.71196 -5.92521 2.86382
head 2.48306 -3.03875 1.93081
rclavicle -3.99557e-014 1.23246e-014
rhumerus 16.128 15.4146 -63.3147
rradius 85.7454
rwrist -0.435647
rhand -31.9218 23.032
rfingers 7.12502
rthumb -5.17321 -6.88486
lclavicle -3.99557e-014 1.23246e-014
lhumerus 5.68031 -24.9301 61.4856
lradius 94.4512
lwrist 5.57776
lhand -21.3965 28.3104
lfingers 7.12502
lthumb 4.99153 58.2316
rfemur -19.4628 0.43061 16.1165
rtibia 36.6136
rfoot -16.6928 -11.3326
rtoes -8.91346
lfemur -14.8756 1.4737 -21.5851
ltibia 32.4197
lfoot -17.6935 9.60722
ltoes -14.1394
1981
root -0.447376 17.681 -2.92941 0.109655 -1.37464 3.16621
lowerback 9.73362 2.26425 0.347195
upperback 5.61389 3.02019 -0.824753
thorax 0.43926 1.53198 -1.3197
lowerneck -0.207188 -4.27496 -6.5435
upperneck 6.61974 -5.70393 2.63133
head 2.43897 -2.93049 1.84341
rclavicle -2.71341e-014 7.15625e-015
rhumerus 16.748 15.3757 -63.2269
rradius 85.4038
rwrist -1.47959
rhand -31.4244 22.6938
rfingers 7.12502
rthumb -4.69291 -7.23426
lclavicle -2.71341e-014 7.15625e-015
lhumerus 5.18066 -25.1178 61.2899
lradius 95.0856
lwrist 6.4566
lhand -19.8779 27.9699
lfingers 7.12502
lthumb 6.45773 57.8514
rfemur -19.5391 0.589376 16.0232
rtibia 36.534
rfoot -16.6563 -11.2777
rtoes -9.18101
lfemur -14.8302 1.64961 -21.6816
ltibia 32.2626
lfoot -17.7291 9.66885
ltoes -13.7679
1982
root -0.439813 17.6872 -2.9277 0.151086 -1.61561 3.26335
lowerback 9.69746 2.30513 0.475943
upperback 5.5868 3.08376 -0.917996
thorax 0.444805 1.56803 -1.49242
lowerneck -0.255906 -4.1456 -6.38835
upperneck 6.54371 -5.51514 2.36183
head 2.39589 -2.83795 1.73213
rclavicle 4.22417e-014 -1.39149e-014
rhumerus 17.3785 15.2403 -63.1776
rradius 84.9707
rwrist -2.92747
rhand -30.9408 22.6698
rfingers 7.12502
rthumb -4.22593 -7.268
lclavicle 4.22417e-014 -1.39149e-014
lhumerus 4.61361 -25.5278 60.9498
lradius 95.796
lwrist 7.56281
lhand -18.5286 27.5127
lfingers 7.12502
lthumb 7.76017 57.3503
rfemur -19.5846 0.720749 15.8908
rtibia 36.4005
rfoot -16.4939 -11.2824
rtoes -9.974
lfemur -14.74 1.81329 -21.8127
ltibia 32.0833
lfoot -17.7067 9.72964
ltoes -13.6532
1983
root -0.432053 17.695 -2.92456 0.179547 -1.90177 3.36141
lowerback 9.67098 2.35977 0.602027
upperback 5.55672 3.16524 -1.00412
thorax 0.44257 1.61275 -1.65838
lowerneck -0.300306 -4.02318 -6.33484
upperneck 6.45215 -5.33956 2.18776
head 2.35611 -2.75208 1.67024
rclavicle -4.34344e-014 6.36111e-015
rhumerus 18.0455 15.0832 -63.1559
rradius 84.3769
rwrist -4.66845
rhand -30.6981 22.9169
rfingers 7.12502
rthumb -3.99164 -7.02545
lclavicle -4.34344e-014 6.36111e-015
lhumerus 3.99898 -26.2518 60.4462
lradius 96.6429
lwrist 9.38051
lhand -18.0871 27.138
lfingers 7.12502
lthumb 8.18626 56.9594
rfemur -19.5963 0.937913 15.7538
rtibia 36.2262
rfoot -16.3272 -11.2748
rtoes -10.3923
lfemur -14.6148 2.01641 -21.9394
ltibia 31.8715
lfoot -17.656 9.78902
ltoes -13.5967
1984
root -0.425111 17.7022 -2.92255 0.229252 -2.21447 3.32834
lowerback 9.62554 2.4376 0.84097
upperback 5.53966 3.28676 -1.03429
thorax 0.469523 1.67947 -1.83175
lowerneck -0.390538 -3.9265 -6.29948
upperneck 6.34139 -5.2001 2.0951
head 2.32419 -2.68228 1.63657
rclavicle 7.51406e-014 -2.70347e-014
rhumerus 18.7749 14.8335 -63.1495
rradius 83.6857
rwrist -6.59189
rhand -30.3715 22.9819
rfingers 7.12502
rthumb -3.67618 -6.96615
lclavicle 7.51406e-014 -2.70347e-014
lhumerus 3.41544 -27.0745 59.942
lradius 97.6463
lwrist 11.6043
lhand -17.739 26.7665
lfingers 7.12502
lthumb 8.52224 56.5745
rfemur -19.576 1.18963 15.7716
rtibia 36.0297
rfoot -16.2641 -11.0934
rtoes -9.85686
lfemur -14.4999 2.2448 -21.9165
ltibia 31.6149
lfoot -17.6497 9.81675
ltoes -13.2952
